<?xml version="1.0" encoding="UTF-8" standalone="no"?>
<!DOCTYPE svg PUBLIC "-//W3C//DTD SVG 20010904//EN"
              "http://www.w3.org/TR/2001/REC-SVG-20010904/DTD/svg10.dtd">

<svg xmlns="http://www.w3.org/2000/svg"
     width="3.12667in" height="1.54333in"
     viewBox="-1 -1 940 465">
  <path id="Selection"
        fill="black" stroke="black" stroke-width="1"
        d="M 164.00,0.53
           C 167.55,0.03 172.71,0.01 174.98,3.42
             176.47,5.66 176.00,13.08 176.00,16.00
             176.00,16.00 176.00,48.00 176.00,48.00
             176.00,48.00 176.00,196.00 176.00,196.00
             176.00,198.31 176.20,201.77 174.98,203.77
             172.33,208.11 162.77,207.91 159.43,204.57
             156.64,201.78 157.01,197.62 157.00,194.00
             157.00,194.00 157.00,47.00 157.00,47.00
             157.00,47.00 157.00,12.00 157.00,12.00
             157.08,5.45 157.37,2.72 164.00,0.53 Z
           M 210.00,13.57
           C 226.72,10.96 228.21,32.28 216.00,35.57
             202.69,39.15 195.24,19.38 210.00,13.57 Z
           M 19.00,131.00
           C 19.03,166.03 42.54,200.53 81.00,195.13
             86.79,194.32 92.64,193.09 98.00,190.69
             107.67,186.36 116.53,180.24 122.07,171.00
             126.07,164.34 125.67,160.11 127.82,157.57
             131.35,153.40 143.25,153.29 145.09,159.11
             147.10,165.46 139.06,178.50 134.91,183.00
             119.87,199.30 96.83,206.97 75.00,207.00
             43.87,207.05 16.68,193.36 5.06,163.00
             0.29,150.52 -0.15,141.08 0.00,128.00
             0.26,105.84 11.10,83.13 29.00,69.92
             55.51,50.37 103.70,50.87 128.00,74.04
             141.42,86.83 148.33,103.44 148.00,122.00
             147.82,131.66 140.81,130.99 133.00,131.00
             133.00,131.00 78.00,131.00 78.00,131.00
             78.00,131.00 19.00,131.00 19.00,131.00 Z
           M 209.02,56.57
           C 219.21,54.74 222.95,57.85 223.00,68.00
             223.00,68.00 223.00,87.00 223.00,87.00
             223.00,87.00 223.00,194.00 223.00,194.00
             222.99,197.14 223.29,201.12 221.26,203.72
             217.90,208.04 208.10,208.04 204.74,203.72
             202.71,201.12 203.01,197.14 203.00,194.00
             203.00,194.00 203.00,90.00 203.00,90.00
             203.00,90.00 203.00,68.00 203.00,68.00
             203.01,65.48 202.89,62.37 204.17,60.13
             205.50,57.83 206.76,57.50 209.02,56.57 Z
           M 349.00,185.00
           C 344.33,189.62 340.68,193.08 335.00,196.54
             317.23,207.35 291.91,209.49 272.00,204.37
             251.40,199.08 236.91,186.55 237.74,164.00
             237.95,158.54 238.09,155.20 240.06,150.00
             247.49,130.42 266.70,127.19 285.00,125.91
             285.00,125.91 298.00,125.01 298.00,125.01
             298.00,125.01 307.00,125.95 307.00,125.95
             307.00,125.95 322.00,125.95 322.00,125.95
             327.89,125.93 342.85,124.33 345.98,118.87
             347.49,116.23 347.04,107.37 347.00,104.00
             346.59,69.76 302.94,58.09 276.00,75.55
             270.62,79.03 265.62,84.13 262.91,90.00
             260.49,95.24 261.59,98.04 259.40,100.57
             255.72,104.84 244.89,104.71 242.60,98.94
             241.16,95.32 243.00,89.40 244.51,86.00
             249.67,74.42 259.81,67.35 271.00,62.31
             304.24,47.33 365.93,57.24 366.00,103.00
             366.03,122.26 364.94,163.18 367.18,180.00
             367.85,185.02 369.80,189.20 373.19,192.96
             375.37,195.39 379.92,198.30 379.42,201.91
             378.67,207.47 368.91,207.50 365.00,206.01
             356.19,202.66 351.05,193.75 349.00,185.00 Z
           M 129.00,119.00
           C 128.39,105.63 122.70,90.47 112.96,81.09
             97.08,65.79 69.21,63.07 50.00,73.32
             32.81,82.49 23.73,100.54 20.00,119.00
             20.00,119.00 129.00,119.00 129.00,119.00 Z
           M 347.00,135.00
           C 347.00,135.00 326.00,137.00 326.00,137.00
             326.00,137.00 288.00,137.00 288.00,137.00
             276.41,137.14 263.05,141.12 258.56,153.00
             256.83,157.58 256.95,162.19 257.00,167.00
             257.36,196.81 294.75,199.81 316.00,191.14
             329.58,185.59 342.88,174.99 346.32,160.00
             347.44,155.14 347.00,140.81 347.00,135.00 Z
           M 26.00,439.00
           C 26.00,442.85 26.67,457.03 24.98,459.58
             22.20,463.76 12.07,463.87 8.74,460.30
             6.65,458.06 7.00,453.88 7.00,451.00
             7.00,451.00 7.00,301.00 7.00,301.00
             7.00,301.00 7.00,266.00 7.00,266.00
             7.14,258.75 10.51,255.45 18.00,256.20
             25.78,256.98 25.99,260.36 26.00,267.00
             26.00,267.00 26.00,335.00 26.00,335.00
             30.43,330.48 33.72,326.44 39.00,322.77
             52.33,313.51 65.31,311.82 81.00,312.00
             92.55,312.14 105.39,315.98 115.00,322.36
             134.70,335.42 145.96,358.51 146.00,382.00
             146.00,382.00 146.00,394.00 146.00,394.00
             145.83,408.42 139.81,426.81 130.68,438.00
             104.69,469.86 51.61,472.84 26.00,439.00 Z
           M 738.00,269.57
           C 754.72,266.96 756.21,288.28 744.00,291.57
             730.69,295.15 723.24,275.38 738.00,269.57 Z
           M 924.00,269.57
           C 940.72,266.96 942.21,288.28 930.00,291.57
             916.69,295.15 909.24,275.38 924.00,269.57 Z
           M 217.00,312.42
           C 243.49,309.19 271.17,319.10 287.07,341.00
             296.23,353.61 300.64,370.55 300.99,386.00
             301.60,412.97 289.22,440.39 265.00,453.69
             251.40,461.16 238.29,463.18 223.00,463.00
             203.40,462.77 182.13,453.98 169.30,439.00
             146.25,412.11 146.06,364.32 168.46,337.00
             181.30,321.34 197.67,315.34 217.00,312.42 Z
           M 360.00,312.42
           C 377.79,310.25 399.78,315.09 412.56,328.29
             417.12,332.99 420.59,338.72 422.47,345.00
             423.57,348.69 423.94,352.11 419.88,353.99
             418.14,354.80 415.89,354.97 414.00,354.97
             400.57,354.95 406.01,344.27 393.96,333.18
             387.49,327.23 376.80,323.34 368.00,323.34
             353.65,323.34 334.04,331.75 330.53,347.00
             327.32,360.90 339.04,366.58 350.00,370.56
             371.62,378.42 394.48,375.07 414.00,389.76
             428.21,400.46 431.52,424.35 421.89,439.00
             415.67,448.48 406.40,454.13 396.00,457.95
             384.96,461.99 375.68,463.13 364.00,463.00
             346.28,462.79 326.68,455.59 315.92,441.00
             312.08,435.78 301.42,418.73 312.02,415.57
             325.40,411.57 326.05,422.46 330.80,431.00
             333.08,435.12 335.60,437.73 339.00,440.96
             346.28,447.85 358.92,452.55 369.00,451.82
             384.76,450.67 403.63,441.73 407.47,425.00
             410.42,412.16 401.56,405.91 391.00,401.43
             370.89,392.88 347.80,396.11 330.00,385.37
             315.76,376.78 310.81,366.06 311.00,350.00
             311.08,343.77 312.54,339.26 315.96,334.00
             319.82,328.08 326.73,322.97 333.00,319.81
             342.79,314.88 349.49,314.01 360.00,312.42 Z
           M 497.00,312.42
           C 518.47,309.80 543.62,316.42 558.99,332.00
             566.02,339.14 582.47,365.18 561.00,363.96
             552.15,363.45 553.05,357.54 550.37,351.00
             548.59,346.63 545.85,342.55 542.70,339.04
             525.84,320.22 494.29,318.26 475.00,334.32
             451.50,353.90 446.46,389.29 457.06,417.00
             464.18,435.58 478.06,448.27 498.00,451.13
             502.00,451.70 503.85,452.20 508.00,451.71
             522.13,450.04 535.38,444.23 544.53,433.00
             555.63,419.38 550.12,411.81 561.00,411.05
             570.16,410.42 573.50,414.00 571.07,423.00
             569.21,429.90 563.76,437.83 558.83,442.91
             544.52,457.65 521.92,463.23 502.00,463.00
             484.32,462.79 464.66,455.68 452.29,442.83
             427.33,416.91 426.56,365.91 448.52,338.00
             461.50,321.49 477.00,315.44 497.00,312.42 Z
           M 693.00,441.00
           C 688.33,445.62 684.68,449.08 679.00,452.54
             661.23,463.35 635.91,465.49 616.00,460.37
             595.40,455.08 580.91,442.55 581.74,420.00
             581.95,414.54 582.09,411.20 584.06,406.00
             591.49,386.42 610.70,383.19 629.00,381.91
             629.00,381.91 642.00,381.01 642.00,381.01
             642.00,381.01 651.00,381.95 651.00,381.95
             651.00,381.95 666.00,381.95 666.00,381.95
             671.89,381.93 686.85,380.33 689.98,374.87
             691.49,372.23 691.04,363.37 691.00,360.00
             690.59,325.76 646.94,314.09 620.00,331.55
             614.62,335.03 609.62,340.13 606.91,346.00
             604.49,351.24 605.59,354.04 603.40,356.57
             599.72,360.84 588.89,360.71 586.60,354.94
             585.16,351.32 587.00,345.40 588.51,342.00
             593.67,330.42 603.81,323.35 615.00,318.31
             648.24,303.33 709.93,313.24 710.00,359.00
             710.03,378.26 708.94,419.18 711.18,436.00
             711.85,441.02 713.80,445.20 717.19,448.96
             719.37,451.39 723.92,454.30 723.42,457.91
             722.67,463.47 712.91,463.50 709.00,462.01
             700.19,458.66 695.05,449.75 693.00,441.00 Z
           M 737.02,312.57
           C 747.21,310.74 750.95,313.85 751.00,324.00
             751.00,324.00 751.00,343.00 751.00,343.00
             751.00,343.00 751.00,450.00 751.00,450.00
             750.99,453.14 751.29,457.12 749.26,459.72
             745.90,464.04 736.10,464.04 732.74,459.72
             730.70,457.11 731.01,453.14 731.00,450.00
             731.00,450.00 731.00,346.00 731.00,346.00
             731.00,346.00 731.00,324.00 731.00,324.00
             731.01,321.48 730.89,318.37 732.17,316.13
             733.50,313.83 734.76,313.50 737.02,312.57 Z
           M 789.00,336.00
           C 793.46,324.62 807.60,316.92 819.00,314.13
             848.78,306.85 881.48,319.46 893.55,349.00
             899.83,364.38 899.00,375.02 899.00,391.00
             899.00,391.00 899.00,436.00 899.00,436.00
             899.00,436.00 899.00,453.00 899.00,453.00
             898.99,455.02 899.13,457.85 897.98,459.58
             896.11,462.39 891.10,463.11 888.00,462.80
             879.90,461.99 880.01,457.73 880.00,451.00
             880.00,451.00 880.00,379.00 880.00,379.00
             879.98,365.41 875.93,349.39 866.82,339.00
             847.93,317.46 817.78,319.11 800.76,342.00
             787.71,359.55 788.00,378.36 788.00,399.00
             788.00,399.00 788.00,452.00 788.00,452.00
             788.00,454.24 788.22,457.69 786.98,459.61
             784.00,464.20 773.84,463.62 770.74,460.30
             768.65,458.06 769.00,453.88 769.00,451.00
             769.00,451.00 769.00,344.00 769.00,344.00
             769.00,344.00 769.00,324.00 769.00,324.00
             769.00,321.60 768.80,318.25 770.02,316.13
             771.97,312.73 776.38,311.84 780.00,312.20
             792.88,313.49 785.64,324.16 789.00,336.00 Z
           M 923.02,312.57
           C 933.21,310.74 936.95,313.85 937.00,324.00
             937.00,324.00 937.00,343.00 937.00,343.00
             937.00,343.00 937.00,450.00 937.00,450.00
             936.99,453.14 937.29,457.12 935.26,459.72
             931.90,464.04 922.10,464.04 918.74,459.72
             916.70,457.11 917.01,453.14 917.00,450.00
             917.00,450.00 917.00,346.00 917.00,346.00
             917.00,346.00 917.00,324.00 917.00,324.00
             917.01,321.48 916.89,318.37 918.17,316.13
             919.50,313.83 920.76,313.50 923.02,312.57 Z
           M 71.00,323.29
           C 29.95,330.11 18.11,381.86 31.06,416.00
             38.04,434.38 50.61,448.77 71.00,451.29
             74.09,451.40 75.83,451.83 79.00,451.29
             122.56,447.48 135.07,395.41 122.92,360.00
             114.80,336.32 96.83,320.84 71.00,323.29 Z
           M 223.00,323.29
           C 209.14,325.31 199.63,327.94 189.29,338.29
             156.90,370.68 166.29,448.58 225.00,451.91
             228.44,452.10 230.67,451.60 234.00,451.13
             255.19,448.16 270.21,433.87 277.30,414.00
             289.02,381.19 277.91,335.78 241.00,325.30
             236.11,323.91 228.05,322.86 223.00,323.29 Z
           M 691.00,391.00
           C 691.00,391.00 670.00,393.00 670.00,393.00
             670.00,393.00 632.00,393.00 632.00,393.00
             620.41,393.14 607.05,397.12 602.56,409.00
             600.83,413.58 600.95,418.19 601.00,423.00
             601.36,452.81 638.75,455.81 660.00,447.14
             673.58,441.59 686.88,430.99 690.32,416.00
             691.44,411.14 691.00,396.81 691.00,391.00 Z" />
</svg>
