<svg width="800" height="600" xmlns="http://www.w3.org/2000/svg">

 <g>
  <title>Layer 1</title>
  <ellipse stroke-width="10" stroke="#000" ry="121.5" rx="128.5" id="svg_1" cy="286" cx="353" fill="#fff"/>
  <path stroke-width="10" id="svg_4" d="m353.65218,203.48251l0,0c13.05226,0 23.63321,11.16137 23.63321,24.9296c0,13.76824 -10.58095,24.9296 -23.63321,24.9296c-13.05228,0 -23.63321,-11.16134 -23.63321,-24.9296c0,-13.76824 10.58093,-24.9296 23.63321,-24.9296zm0,162.00001c-13.05228,0 -23.63321,-11.16136 -23.63321,-24.9296c0,-13.76823 10.58093,-24.9296 23.63321,-24.9296c13.05226,0 23.63321,11.16136 23.63321,24.9296c0,13.76825 -10.58095,24.9296 -23.63321,24.9296zm-69.50001,-105.92961l139.00001,0l0,49.8592l-139.00001,0l0,-49.8592z" stroke="#000" fill="#fff"/>
 </g>
</svg>