<?xml version="1.0" encoding="UTF-8" standalone="no"?>
<!DOCTYPE svg PUBLIC "-//W3C//DTD SVG 20010904//EN"
              "http://www.w3.org/TR/2001/REC-SVG-20010904/DTD/svg10.dtd">

<svg xmlns="http://www.w3.org/2000/svg"
     width="1.03667in" height="1.03667in"
     viewBox="-1 -1 313 313">
  <path id="Selection #1"
        fill="black" stroke="black" stroke-width="1"
        d="M 104.00,8.00
           C 119.19,4.54 130.79,0.03 147.00,0.00
             158.46,-0.02 168.59,-0.40 180.00,1.44
             213.09,6.76 244.72,22.74 267.96,47.00
             315.86,97.00 325.37,175.41 289.80,235.00
             282.43,247.35 268.28,266.83 256.00,274.00
             256.00,274.00 252.72,247.00 252.72,247.00
             250.72,232.96 244.43,208.11 237.50,196.00
             229.25,181.59 211.42,172.37 205.42,159.00
             199.72,146.32 220.87,147.97 216.43,136.00
             213.82,129.00 206.15,123.82 199.00,122.47
             193.32,121.39 187.97,123.28 183.97,117.87
             178.15,110.00 178.31,94.49 176.68,85.00
             175.54,78.36 170.66,69.49 166.79,64.00
             158.99,52.93 137.12,33.07 126.00,24.50
             119.23,19.28 108.99,13.99 104.00,8.00 Z
           M 225.00,295.00
           C 209.71,303.67 181.63,310.97 164.00,311.00
             164.00,311.00 145.00,311.00 145.00,311.00
             132.32,310.85 116.04,306.69 104.00,302.67
             89.18,297.71 76.73,291.04 64.00,282.00
             -1.70,235.35 -19.32,143.54 21.80,75.00
             30.65,60.25 48.34,38.58 63.00,29.78
             65.02,28.57 66.64,27.69 68.96,28.82
             71.99,30.29 74.60,35.31 76.61,38.00
             76.61,38.00 87.90,52.00 87.90,52.00
             87.90,52.00 106.19,80.00 106.19,80.00
             109.65,86.85 110.91,93.06 113.44,100.00
             113.44,100.00 119.42,115.00 119.42,115.00
             121.64,120.83 128.69,137.55 128.48,142.98
             128.20,149.85 117.35,151.74 112.00,152.74
             112.00,152.74 70.00,161.88 70.00,161.88
             65.61,163.04 57.82,165.16 57.11,170.59
             56.45,175.71 63.07,178.31 67.00,179.18
             67.00,179.18 90.00,182.65 90.00,182.65
             93.46,183.49 96.95,184.41 98.40,188.05
             102.31,197.88 88.27,219.85 89.74,228.00
             90.14,230.21 91.40,232.03 93.13,233.43
             98.83,238.02 103.88,233.13 107.96,228.98
             107.96,228.98 136.17,194.00 136.17,194.00
             139.32,190.51 144.69,183.87 150.00,185.62
             153.60,186.80 156.29,191.06 158.42,194.00
             158.42,194.00 172.01,213.00 172.01,213.00
             172.01,213.00 188.96,234.00 188.96,234.00
             188.96,234.00 195.61,245.00 195.61,245.00
             195.61,245.00 208.24,265.00 208.24,265.00
             208.24,265.00 214.89,274.00 214.89,274.00
             216.57,276.57 224.19,292.21 225.00,295.00 Z" />
</svg>
